<svg xmlns="http://www.w3.org/2000/svg" width="1200" height="582" viewBox="0 0 1200 582" role="img" aria-label="Filtro adaptativo, 20 threads: dynamic,16 versus static">
<title>Filtro adaptativo, 20 threads: dynamic,16 versus static</title>
<style>text{font-family:Arial,sans-serif;fill:#202124}.axis{font-size:13px}.small{font-size:12px}.title{font-size:20px;font-weight:700}.legend{font-size:12px}.grid{stroke:#d9d9d9;stroke-width:1}.frame{fill:none;stroke:#555;stroke-width:1}.note{font-size:11px;fill:#555}</style>
<text class="title" x="255" y="34">Filtro adaptativo, 20 threads: dynamic,16 versus static</text>
<line class="grid" x1="255.0" x2="255.0" y1="70" y2="507"/>
<text class="axis" text-anchor="middle" x="255.0" y="529">0.95×</text>
<line class="grid" x1="443.8" x2="443.8" y1="70" y2="507"/>
<text class="axis" text-anchor="middle" x="443.8" y="529">1.07×</text>
<line class="grid" x1="632.5" x2="632.5" y1="70" y2="507"/>
<text class="axis" text-anchor="middle" x="632.5" y="529">1.19×</text>
<line class="grid" x1="821.2" x2="821.2" y1="70" y2="507"/>
<text class="axis" text-anchor="middle" x="821.2" y="529">1.31×</text>
<line class="grid" x1="1010.0" x2="1010.0" y1="70" y2="507"/>
<text class="axis" text-anchor="middle" x="1010.0" y="529">1.44×</text>
<rect class="frame" x="255" y="70" width="755" height="437"/>
<line x1="337.2" x2="337.2" y1="70" y2="507" stroke="#555" stroke-width="2" stroke-dasharray="6,4"/>
<text class="axis" text-anchor="end" x="243" y="106.1">control_bands_256_6000x6000.png</text>
<rect x="255.0" y="78.7" width="396.4" height="12.2" fill="#555555"/>
<text class="small" x="657.4" y="88.3">1.20×</text>
<rect x="255.0" y="94.3" width="402.0" height="12.2" fill="#8a2be2"/>
<text class="small" x="663.0" y="103.9">1.21×</text>
<text class="axis" text-anchor="end" x="243" y="160.7">control_half_noise_6000x6000.png</text>
<rect x="255.0" y="133.4" width="692.1" height="12.2" fill="#555555"/>
<text class="small" x="953.1" y="142.9">1.40×</text>
<rect x="255.0" y="149.0" width="564.3" height="12.2" fill="#8a2be2"/>
<text class="small" x="825.3" y="158.5">1.31×</text>
<text class="axis" text-anchor="end" x="243" y="215.3">control_noise_6000x6000.png</text>
<rect x="255.0" y="188.0" width="97.4" height="12.2" fill="#555555"/>
<text class="small" x="358.4" y="197.5">1.01×</text>
<rect x="255.0" y="203.6" width="151.3" height="12.2" fill="#8a2be2"/>
<text class="small" x="412.3" y="213.1">1.04×</text>
<text class="axis" text-anchor="end" x="243" y="269.9">control_smooth_6000x6000.png</text>
<rect x="255.0" y="242.6" width="62.9" height="12.2" fill="#555555"/>
<text class="small" x="323.9" y="252.1">0.99×</text>
<rect x="255.0" y="258.2" width="68.8" height="12.2" fill="#8a2be2"/>
<text class="small" x="329.8" y="267.7">0.99×</text>
<text class="axis" text-anchor="end" x="243" y="324.6">firework.jpg</text>
<rect x="255.0" y="297.2" width="519.8" height="12.2" fill="#555555"/>
<text class="small" x="780.8" y="306.8">1.28×</text>
<rect x="255.0" y="312.8" width="556.1" height="12.2" fill="#8a2be2"/>
<text class="small" x="817.1" y="322.4">1.31×</text>
<text class="axis" text-anchor="end" x="243" y="379.2">rain_paisage.jpg</text>
<rect x="255.0" y="351.9" width="626.4" height="12.2" fill="#555555"/>
<text class="small" x="887.4" y="361.4">1.35×</text>
<rect x="255.0" y="367.5" width="624.7" height="12.2" fill="#8a2be2"/>
<text class="small" x="885.7" y="377.0">1.35×</text>
<text class="axis" text-anchor="end" x="243" y="433.8">sky.jpg</text>
<rect x="255.0" y="406.5" width="171.2" height="12.2" fill="#555555"/>
<text class="small" x="432.2" y="416.0">1.06×</text>
<rect x="255.0" y="422.1" width="206.3" height="12.2" fill="#8a2be2"/>
<text class="small" x="467.3" y="431.6">1.08×</text>
<text class="axis" text-anchor="end" x="243" y="488.4">stars.jpg</text>
<rect x="255.0" y="461.1" width="194.4" height="12.2" fill="#555555"/>
<text class="small" x="455.4" y="470.6">1.07×</text>
<rect x="255.0" y="476.7" width="189.5" height="12.2" fill="#8a2be2"/>
<text class="small" x="450.5" y="486.2">1.07×</text>
<rect x="255" y="534" width="15" height="15" fill="#555555"/>
<text class="legend" x="277" y="546">off</text>
<rect x="435" y="534" width="15" height="15" fill="#8a2be2"/>
<text class="legend" x="457" y="546">omp</text>
<text class="axis" text-anchor="middle" x="632.5" y="570">Speedup (static / dynamic,16)</text>
</svg>