<svg xmlns="http://www.w3.org/2000/svg" width="1200" height="700" viewBox="0 0 1200 700" role="img" aria-label="Gaussian: custo direto versus separável — 1 thread">
<title>Gaussian: custo direto versus separável — 1 thread</title>
<style>text{font-family:Arial,sans-serif;fill:#202124}.axis{font-size:13px}.small{font-size:12px}.title{font-size:20px;font-weight:700}.legend{font-size:12px}.grid{stroke:#d9d9d9;stroke-width:1}.frame{fill:none;stroke:#555;stroke-width:1}.note{font-size:11px;fill:#555}</style>
<text class="title" x="105" y="34">Gaussian: custo direto versus separável — 1 thread</text>
<line class="grid" x1="105" x2="930" y1="605.0" y2="605.0"/>
<text class="axis" text-anchor="end" x="95" y="610.0">0.00 ms</text>
<line class="grid" x1="105" x2="930" y1="471.8" y2="471.8"/>
<text class="axis" text-anchor="end" x="95" y="476.8">2.15 s</text>
<line class="grid" x1="105" x2="930" y1="338.5" y2="338.5"/>
<text class="axis" text-anchor="end" x="95" y="343.5">4.30 s</text>
<line class="grid" x1="105" x2="930" y1="205.2" y2="205.2"/>
<text class="axis" text-anchor="end" x="95" y="210.2">6.45 s</text>
<line class="grid" x1="105" x2="930" y1="72.0" y2="72.0"/>
<text class="axis" text-anchor="end" x="95" y="77.0">8.61 s</text>
<rect class="frame" x="105" y="72" width="825" height="533"/>
<line class="frame" x1="105.0" x2="105.0" y1="605" y2="611"/>
<text class="axis" text-anchor="middle" x="105.0" y="632">3</text>
<line class="frame" x1="311.2" x2="311.2" y1="605" y2="611"/>
<text class="axis" text-anchor="middle" x="311.2" y="632">5</text>
<line class="frame" x1="517.5" x2="517.5" y1="605" y2="611"/>
<text class="axis" text-anchor="middle" x="517.5" y="632">7</text>
<line class="frame" x1="723.8" x2="723.8" y1="605" y2="611"/>
<text class="axis" text-anchor="middle" x="723.8" y="632">9</text>
<line class="frame" x1="930.0" x2="930.0" y1="605" y2="611"/>
<text class="axis" text-anchor="middle" x="930.0" y="632">11</text>
<polyline points="105.0,510.8 311.2,467.6 517.5,398.0 723.8,304.0 930.0,175.6" fill="none" stroke="#555555" stroke-width="2.5"/>
<circle cx="105.0" cy="510.8" r="4" fill="#555555"/>
<circle cx="311.2" cy="467.6" r="4" fill="#555555"/>
<circle cx="517.5" cy="398.0" r="4" fill="#555555"/>
<circle cx="723.8" cy="304.0" r="4" fill="#555555"/>
<circle cx="930.0" cy="175.6" r="4" fill="#555555"/>
<line x1="948" x2="972" y1="72" y2="72" stroke="#555555" stroke-width="3"/>
<text class="legend" x="980" y="76">AoS direto — sem AVX2</text>
<polyline points="105.0,503.6 311.2,492.5 517.5,469.5 723.8,437.2 930.0,434.5" fill="none" stroke="#2ca02c" stroke-width="2.5"/>
<circle cx="105.0" cy="503.6" r="4" fill="#2ca02c"/>
<circle cx="311.2" cy="492.5" r="4" fill="#2ca02c"/>
<circle cx="517.5" cy="469.5" r="4" fill="#2ca02c"/>
<circle cx="723.8" cy="437.2" r="4" fill="#2ca02c"/>
<circle cx="930.0" cy="434.5" r="4" fill="#2ca02c"/>
<line x1="948" x2="972" y1="94" y2="94" stroke="#2ca02c" stroke-width="3"/>
<text class="legend" x="980" y="98">SoA separável — sem AVX2</text>
<polyline points="105.0,504.9 311.2,448.8 517.5,367.4 723.8,263.3 930.0,116.0" fill="none" stroke="#8a2be2" stroke-width="2.5"/>
<circle cx="105.0" cy="504.9" r="4" fill="#8a2be2"/>
<circle cx="311.2" cy="448.8" r="4" fill="#8a2be2"/>
<circle cx="517.5" cy="367.4" r="4" fill="#8a2be2"/>
<circle cx="723.8" cy="263.3" r="4" fill="#8a2be2"/>
<circle cx="930.0" cy="116.0" r="4" fill="#8a2be2"/>
<line x1="948" x2="972" y1="116" y2="116" stroke="#8a2be2" stroke-width="3"/>
<text class="legend" x="980" y="120">AoS direto — AVX2</text>
<polyline points="105.0,498.9 311.2,484.7 517.5,469.5 723.8,454.9 930.0,441.5" fill="none" stroke="#17becf" stroke-width="2.5"/>
<circle cx="105.0" cy="498.9" r="4" fill="#17becf"/>
<circle cx="311.2" cy="484.7" r="4" fill="#17becf"/>
<circle cx="517.5" cy="469.5" r="4" fill="#17becf"/>
<circle cx="723.8" cy="454.9" r="4" fill="#17becf"/>
<circle cx="930.0" cy="441.5" r="4" fill="#17becf"/>
<line x1="948" x2="972" y1="138" y2="138" stroke="#17becf" stroke-width="3"/>
<text class="legend" x="980" y="142">SoA separável — AVX2</text>
<text class="axis" text-anchor="middle" x="517.5" y="675">Taps por dimensão</text>
<text class="axis" text-anchor="middle" transform="translate(25 338.5) rotate(-90)">Tempo do kernel (ms)</text>
</svg>