<svg xmlns="http://www.w3.org/2000/svg" width="1200" height="888" viewBox="0 0 1200 888" role="img" aria-label="Schedules dinâmicos versus static — operações regulares, 20 threads">
<title>Schedules dinâmicos versus static — operações regulares, 20 threads</title>
<style>text{font-family:Arial,sans-serif;fill:#202124}.axis{font-size:13px}.small{font-size:12px}.title{font-size:20px;font-weight:700}.legend{font-size:12px}.grid{stroke:#d9d9d9;stroke-width:1}.frame{fill:none;stroke:#555;stroke-width:1}.note{font-size:11px;fill:#555}</style>
<text class="title" x="255" y="34">Schedules dinâmicos versus static — operações regulares, 20 threads</text>
<line class="grid" x1="255.0" x2="255.0" y1="70" y2="813"/>
<text class="axis" text-anchor="middle" x="255.0" y="835">0.00×</text>
<line class="grid" x1="443.8" x2="443.8" y1="70" y2="813"/>
<text class="axis" text-anchor="middle" x="443.8" y="835">0.32×</text>
<line class="grid" x1="632.5" x2="632.5" y1="70" y2="813"/>
<text class="axis" text-anchor="middle" x="632.5" y="835">0.64×</text>
<line class="grid" x1="821.2" x2="821.2" y1="70" y2="813"/>
<text class="axis" text-anchor="middle" x="821.2" y="835">0.95×</text>
<line class="grid" x1="1010.0" x2="1010.0" y1="70" y2="813"/>
<text class="axis" text-anchor="middle" x="1010.0" y="835">1.27×</text>
<rect class="frame" x="255" y="70" width="755" height="743"/>
<line x1="848.5" x2="848.5" y1="70" y2="813" stroke="#555" stroke-width="2" stroke-dasharray="6,4"/>
<text class="axis" text-anchor="end" x="243" y="98.8">Adjust_Brightness</text>
<rect x="255.0" y="77.0" width="670.1" height="9.7" fill="#d62728"/>
<text class="small" x="931.1" y="84.6">1.13×</text>
<rect x="255.0" y="89.5" width="656.6" height="9.7" fill="#2ca02c"/>
<text class="small" x="917.6" y="97.1">1.11×</text>
<text class="axis" text-anchor="end" x="243" y="142.6">Adjust_Contrast</text>
<rect x="255.0" y="120.7" width="686.4" height="9.7" fill="#d62728"/>
<text class="small" x="947.4" y="128.3">1.16×</text>
<rect x="255.0" y="133.2" width="667.1" height="9.7" fill="#2ca02c"/>
<text class="small" x="928.1" y="140.8">1.12×</text>
<text class="axis" text-anchor="end" x="243" y="186.3">Equalize_Histogram</text>
<rect x="255.0" y="164.4" width="653.3" height="9.7" fill="#d62728"/>
<text class="small" x="914.3" y="172.0">1.10×</text>
<rect x="255.0" y="176.9" width="661.2" height="9.7" fill="#2ca02c"/>
<text class="small" x="922.2" y="184.5">1.11×</text>
<text class="axis" text-anchor="end" x="243" y="230.0">Flip_Horizontal</text>
<rect x="255.0" y="208.1" width="674.1" height="9.7" fill="#d62728"/>
<text class="small" x="935.1" y="215.7">1.14×</text>
<rect x="255.0" y="220.6" width="628.9" height="9.7" fill="#2ca02c"/>
<text class="small" x="889.9" y="228.2">1.06×</text>
<text class="axis" text-anchor="end" x="243" y="273.7">Flip_Vertical</text>
<rect x="255.0" y="251.8" width="617.1" height="9.7" fill="#d62728"/>
<text class="small" x="878.1" y="259.4">1.04×</text>
<rect x="255.0" y="264.3" width="637.9" height="9.7" fill="#2ca02c"/>
<text class="small" x="898.9" y="271.9">1.07×</text>
<text class="axis" text-anchor="end" x="243" y="317.4">Gaussian_11x11</text>
<rect x="255.0" y="295.5" width="591.4" height="9.7" fill="#d62728"/>
<text class="small" x="852.4" y="303.1">1.00×</text>
<rect x="255.0" y="308.0" width="569.6" height="9.7" fill="#2ca02c"/>
<text class="small" x="830.6" y="315.6">0.96×</text>
<text class="axis" text-anchor="end" x="243" y="361.1">Gaussian_3x3</text>
<rect x="255.0" y="339.2" width="510.8" height="9.7" fill="#d62728"/>
<text class="small" x="771.8" y="346.8">0.86×</text>
<rect x="255.0" y="351.7" width="560.8" height="9.7" fill="#2ca02c"/>
<text class="small" x="821.8" y="359.3">0.94×</text>
<text class="axis" text-anchor="end" x="243" y="404.8">Gaussian_5x5</text>
<rect x="255.0" y="382.9" width="552.1" height="9.7" fill="#d62728"/>
<text class="small" x="813.1" y="390.6">0.93×</text>
<rect x="255.0" y="395.4" width="563.3" height="9.7" fill="#2ca02c"/>
<text class="small" x="824.3" y="403.0">0.95×</text>
<text class="axis" text-anchor="end" x="243" y="448.5">Gaussian_7x7</text>
<rect x="255.0" y="426.6" width="584.7" height="9.7" fill="#d62728"/>
<text class="small" x="845.7" y="434.3">0.99×</text>
<rect x="255.0" y="439.1" width="567.1" height="9.7" fill="#2ca02c"/>
<text class="small" x="828.1" y="446.7">0.96×</text>
<text class="axis" text-anchor="end" x="243" y="492.2">Gaussian_9x9</text>
<rect x="255.0" y="470.3" width="589.1" height="9.7" fill="#d62728"/>
<text class="small" x="850.1" y="478.0">0.99×</text>
<rect x="255.0" y="482.8" width="568.7" height="9.7" fill="#2ca02c"/>
<text class="small" x="829.7" y="490.5">0.96×</text>
<text class="axis" text-anchor="end" x="243" y="535.9">Grayscale</text>
<rect x="255.0" y="514.1" width="593.3" height="9.7" fill="#d62728"/>
<text class="small" x="854.3" y="521.7">1.00×</text>
<rect x="255.0" y="526.5" width="586.8" height="9.7" fill="#2ca02c"/>
<text class="small" x="847.8" y="534.2">0.99×</text>
<text class="axis" text-anchor="end" x="243" y="579.6">Negative</text>
<rect x="255.0" y="557.8" width="662.2" height="9.7" fill="#d62728"/>
<text class="small" x="923.2" y="565.4">1.12×</text>
<rect x="255.0" y="570.2" width="660.7" height="9.7" fill="#2ca02c"/>
<text class="small" x="921.7" y="577.9">1.11×</text>
<text class="axis" text-anchor="end" x="243" y="623.3">Quantize</text>
<rect x="255.0" y="601.5" width="673.0" height="9.7" fill="#d62728"/>
<text class="small" x="934.0" y="609.1">1.13×</text>
<rect x="255.0" y="614.0" width="655.9" height="9.7" fill="#2ca02c"/>
<text class="small" x="916.9" y="621.6">1.11×</text>
<text class="axis" text-anchor="end" x="243" y="667.0">Rotate_CCW</text>
<rect x="255.0" y="645.2" width="372.2" height="9.7" fill="#d62728"/>
<text class="small" x="633.2" y="652.8">0.63×</text>
<rect x="255.0" y="657.7" width="626.1" height="9.7" fill="#2ca02c"/>
<text class="small" x="887.1" y="665.3">1.06×</text>
<text class="axis" text-anchor="end" x="243" y="710.7">Rotate_CW</text>
<rect x="255.0" y="688.9" width="384.8" height="9.7" fill="#d62728"/>
<text class="small" x="645.8" y="696.5">0.65×</text>
<rect x="255.0" y="701.4" width="632.0" height="9.7" fill="#2ca02c"/>
<text class="small" x="893.0" y="709.0">1.06×</text>
<text class="axis" text-anchor="end" x="243" y="754.4">Zoom_In</text>
<rect x="255.0" y="732.6" width="212.7" height="9.7" fill="#d62728"/>
<text class="small" x="473.7" y="740.2">0.36×</text>
<rect x="255.0" y="745.1" width="533.3" height="9.7" fill="#2ca02c"/>
<text class="small" x="794.3" y="752.7">0.90×</text>
<text class="axis" text-anchor="end" x="243" y="798.1">Zoom_Out</text>
<rect x="255.0" y="776.3" width="489.2" height="9.7" fill="#d62728"/>
<text class="small" x="750.2" y="783.9">0.82×</text>
<rect x="255.0" y="788.8" width="522.9" height="9.7" fill="#2ca02c"/>
<text class="small" x="783.9" y="796.4">0.88×</text>
<rect x="255" y="840" width="15" height="15" fill="#d62728"/>
<text class="legend" x="277" y="852">dynamic,1</text>
<rect x="435" y="840" width="15" height="15" fill="#2ca02c"/>
<text class="legend" x="457" y="852">dynamic,16</text>
<text class="axis" text-anchor="middle" x="632.5" y="876">Média geométrica de 4 razões de medianas (static / dynamic)</text>
</svg>