<svg xmlns="http://www.w3.org/2000/svg" width="1200" height="864" viewBox="0 0 1200 864" role="img" aria-label="Schedules regulares: cada imagem, 20 threads">
<title>Schedules regulares: cada imagem, 20 threads</title>
<style>text{font-family:Arial,sans-serif;fill:#202124}.axis{font-size:13px}.small{font-size:12px}.title{font-size:20px;font-weight:700}.legend{font-size:12px}.grid{stroke:#d9d9d9;stroke-width:1}.frame{fill:none;stroke:#555;stroke-width:1}.note{font-size:11px;fill:#555}</style>
<text class="title" x="250" y="34">Schedules regulares: cada imagem, 20 threads</text>
<text class="note" x="250" y="58">Cada célula é mediana(static) / mediana(dynamic); acima de 1× favorece dynamic. Consulte a tabela para mínimo--máximo.</text>
<text class="axis" text-anchor="end" x="240" y="129.4">Adjust_Brightness</text>
<rect x="250.0" y="105.0" width="207.5" height="38.8" fill="rgb(234,244,254)" stroke="#fff"/>
<text class="small" text-anchor="middle" x="353.8" y="129.0">1.00×</text>
<rect x="457.5" y="105.0" width="207.5" height="38.8" fill="rgb(233,244,252)" stroke="#fff"/>
<text class="small" text-anchor="middle" x="561.2" y="129.0">1.01×</text>
<rect x="665.0" y="105.0" width="207.5" height="38.8" fill="rgb(254,243,233)" stroke="#fff"/>
<text class="small" text-anchor="middle" x="768.8" y="129.0">0.99×</text>
<rect x="872.5" y="105.0" width="207.5" height="38.8" fill="rgb(254,242,231)" stroke="#fff"/>
<text class="small" text-anchor="middle" x="976.2" y="129.0">0.98×</text>
<text class="axis" text-anchor="end" x="240" y="168.2">Adjust_Contrast</text>
<rect x="250.0" y="143.8" width="207.5" height="38.8" fill="rgb(105,200,70)" stroke="#fff"/>
<text class="small" text-anchor="middle" x="353.8" y="167.8">1.74×</text>
<rect x="457.5" y="143.8" width="207.5" height="38.8" fill="rgb(232,244,251)" stroke="#fff"/>
<text class="small" text-anchor="middle" x="561.2" y="167.8">1.01×</text>
<rect x="665.0" y="143.8" width="207.5" height="38.8" fill="rgb(112,202,80)" stroke="#fff"/>
<text class="small" text-anchor="middle" x="768.8" y="167.8">1.69×</text>
<rect x="872.5" y="143.8" width="207.5" height="38.8" fill="rgb(254,240,230)" stroke="#fff"/>
<text class="small" text-anchor="middle" x="976.2" y="167.8">0.98×</text>
<text class="axis" text-anchor="end" x="240" y="207.0">Equalize_Histogram</text>
<rect x="250.0" y="182.5" width="207.5" height="38.8" fill="rgb(125,207,99)" stroke="#fff"/>
<text class="small" text-anchor="middle" x="353.8" y="206.6">1.62×</text>
<rect x="457.5" y="182.5" width="207.5" height="38.8" fill="rgb(254,242,232)" stroke="#fff"/>
<text class="small" text-anchor="middle" x="561.2" y="206.6">0.98×</text>
<rect x="665.0" y="182.5" width="207.5" height="38.8" fill="rgb(125,207,98)" stroke="#fff"/>
<text class="small" text-anchor="middle" x="768.8" y="206.6">1.62×</text>
<rect x="872.5" y="182.5" width="207.5" height="38.8" fill="rgb(254,241,231)" stroke="#fff"/>
<text class="small" text-anchor="middle" x="976.2" y="206.6">0.98×</text>
<text class="axis" text-anchor="end" x="240" y="245.7">Flip_Horizontal</text>
<rect x="250.0" y="221.3" width="207.5" height="38.8" fill="rgb(202,233,208)" stroke="#fff"/>
<text class="small" text-anchor="middle" x="353.8" y="245.3">1.18×</text>
<rect x="457.5" y="221.3" width="207.5" height="38.8" fill="rgb(215,238,227)" stroke="#fff"/>
<text class="small" text-anchor="middle" x="561.2" y="245.3">1.11×</text>
<rect x="665.0" y="221.3" width="207.5" height="38.8" fill="rgb(224,241,239)" stroke="#fff"/>
<text class="small" text-anchor="middle" x="768.8" y="245.3">1.06×</text>
<rect x="872.5" y="221.3" width="207.5" height="38.8" fill="rgb(221,240,235)" stroke="#fff"/>
<text class="small" text-anchor="middle" x="976.2" y="245.3">1.08×</text>
<text class="axis" text-anchor="end" x="240" y="284.5">Flip_Vertical</text>
<rect x="250.0" y="260.1" width="207.5" height="38.8" fill="rgb(254,244,234)" stroke="#fff"/>
<text class="small" text-anchor="middle" x="353.8" y="284.1">1.00×</text>
<rect x="457.5" y="260.1" width="207.5" height="38.8" fill="rgb(226,241,242)" stroke="#fff"/>
<text class="small" text-anchor="middle" x="561.2" y="284.1">1.05×</text>
<rect x="665.0" y="260.1" width="207.5" height="38.8" fill="rgb(223,241,239)" stroke="#fff"/>
<text class="small" text-anchor="middle" x="768.8" y="284.1">1.06×</text>
<rect x="872.5" y="260.1" width="207.5" height="38.8" fill="rgb(225,241,241)" stroke="#fff"/>
<text class="small" text-anchor="middle" x="976.2" y="284.1">1.05×</text>
<text class="axis" text-anchor="end" x="240" y="323.2">Gaussian_11x11</text>
<rect x="250.0" y="298.8" width="207.5" height="38.8" fill="rgb(254,243,233)" stroke="#fff"/>
<text class="small" text-anchor="middle" x="353.8" y="322.9">0.99×</text>
<rect x="457.5" y="298.8" width="207.5" height="38.8" fill="rgb(254,244,234)" stroke="#fff"/>
<text class="small" text-anchor="middle" x="561.2" y="322.9">1.00×</text>
<rect x="665.0" y="298.8" width="207.5" height="38.8" fill="rgb(252,234,222)" stroke="#fff"/>
<text class="small" text-anchor="middle" x="768.8" y="322.9">0.94×</text>
<rect x="872.5" y="298.8" width="207.5" height="38.8" fill="rgb(254,242,231)" stroke="#fff"/>
<text class="small" text-anchor="middle" x="976.2" y="322.9">0.98×</text>
<text class="axis" text-anchor="end" x="240" y="362.0">Gaussian_3x3</text>
<rect x="250.0" y="337.6" width="207.5" height="38.8" fill="rgb(250,222,207)" stroke="#fff"/>
<text class="small" text-anchor="middle" x="353.8" y="361.6">0.86×</text>
<rect x="457.5" y="337.6" width="207.5" height="38.8" fill="rgb(250,222,208)" stroke="#fff"/>
<text class="small" text-anchor="middle" x="561.2" y="361.6">0.86×</text>
<rect x="665.0" y="337.6" width="207.5" height="38.8" fill="rgb(253,235,223)" stroke="#fff"/>
<text class="small" text-anchor="middle" x="768.8" y="361.6">0.94×</text>
<rect x="872.5" y="337.6" width="207.5" height="38.8" fill="rgb(253,236,224)" stroke="#fff"/>
<text class="small" text-anchor="middle" x="976.2" y="361.6">0.95×</text>
<text class="axis" text-anchor="end" x="240" y="400.8">Gaussian_5x5</text>
<rect x="250.0" y="376.4" width="207.5" height="38.8" fill="rgb(251,230,217)" stroke="#fff"/>
<text class="small" text-anchor="middle" x="353.8" y="400.4">0.91×</text>
<rect x="457.5" y="376.4" width="207.5" height="38.8" fill="rgb(253,237,225)" stroke="#fff"/>
<text class="small" text-anchor="middle" x="561.2" y="400.4">0.95×</text>
<rect x="665.0" y="376.4" width="207.5" height="38.8" fill="rgb(252,232,219)" stroke="#fff"/>
<text class="small" text-anchor="middle" x="768.8" y="400.4">0.92×</text>
<rect x="872.5" y="376.4" width="207.5" height="38.8" fill="rgb(254,240,229)" stroke="#fff"/>
<text class="small" text-anchor="middle" x="976.2" y="400.4">0.97×</text>
<text class="axis" text-anchor="end" x="240" y="439.5">Gaussian_7x7</text>
<rect x="250.0" y="415.1" width="207.5" height="38.8" fill="rgb(254,241,231)" stroke="#fff"/>
<text class="small" text-anchor="middle" x="353.8" y="439.2">0.98×</text>
<rect x="457.5" y="415.1" width="207.5" height="38.8" fill="rgb(254,242,232)" stroke="#fff"/>
<text class="small" text-anchor="middle" x="561.2" y="439.2">0.99×</text>
<rect x="665.0" y="415.1" width="207.5" height="38.8" fill="rgb(252,234,221)" stroke="#fff"/>
<text class="small" text-anchor="middle" x="768.8" y="439.2">0.93×</text>
<rect x="872.5" y="415.1" width="207.5" height="38.8" fill="rgb(254,241,230)" stroke="#fff"/>
<text class="small" text-anchor="middle" x="976.2" y="439.2">0.98×</text>
<text class="axis" text-anchor="end" x="240" y="478.3">Gaussian_9x9</text>
<rect x="250.0" y="453.9" width="207.5" height="38.8" fill="rgb(254,243,233)" stroke="#fff"/>
<text class="small" text-anchor="middle" x="353.8" y="477.9">0.99×</text>
<rect x="457.5" y="453.9" width="207.5" height="38.8" fill="rgb(254,244,233)" stroke="#fff"/>
<text class="small" text-anchor="middle" x="561.2" y="477.9">0.99×</text>
<rect x="665.0" y="453.9" width="207.5" height="38.8" fill="rgb(252,234,222)" stroke="#fff"/>
<text class="small" text-anchor="middle" x="768.8" y="477.9">0.94×</text>
<rect x="872.5" y="453.9" width="207.5" height="38.8" fill="rgb(254,242,231)" stroke="#fff"/>
<text class="small" text-anchor="middle" x="976.2" y="477.9">0.98×</text>
<text class="axis" text-anchor="end" x="240" y="517.1">Grayscale</text>
<rect x="250.0" y="492.6" width="207.5" height="38.8" fill="rgb(234,244,254)" stroke="#fff"/>
<text class="small" text-anchor="middle" x="353.8" y="516.7">1.00×</text>
<rect x="457.5" y="492.6" width="207.5" height="38.8" fill="rgb(254,244,234)" stroke="#fff"/>
<text class="small" text-anchor="middle" x="561.2" y="516.7">1.00×</text>
<rect x="665.0" y="492.6" width="207.5" height="38.8" fill="rgb(254,243,233)" stroke="#fff"/>
<text class="small" text-anchor="middle" x="768.8" y="516.7">0.99×</text>
<rect x="872.5" y="492.6" width="207.5" height="38.8" fill="rgb(254,243,233)" stroke="#fff"/>
<text class="small" text-anchor="middle" x="976.2" y="516.7">0.99×</text>
<text class="axis" text-anchor="end" x="240" y="555.8">Negative</text>
<rect x="250.0" y="531.4" width="207.5" height="38.8" fill="rgb(149,215,133)" stroke="#fff"/>
<text class="small" text-anchor="middle" x="353.8" y="555.4">1.48×</text>
<rect x="457.5" y="531.4" width="207.5" height="38.8" fill="rgb(233,244,253)" stroke="#fff"/>
<text class="small" text-anchor="middle" x="561.2" y="555.4">1.01×</text>
<rect x="665.0" y="531.4" width="207.5" height="38.8" fill="rgb(143,213,125)" stroke="#fff"/>
<text class="small" text-anchor="middle" x="768.8" y="555.4">1.52×</text>
<rect x="872.5" y="531.4" width="207.5" height="38.8" fill="rgb(254,242,231)" stroke="#fff"/>
<text class="small" text-anchor="middle" x="976.2" y="555.4">0.98×</text>
<text class="axis" text-anchor="end" x="240" y="594.6">Quantize</text>
<rect x="250.0" y="570.2" width="207.5" height="38.8" fill="rgb(119,204,90)" stroke="#fff"/>
<text class="small" text-anchor="middle" x="353.8" y="594.2">1.66×</text>
<rect x="457.5" y="570.2" width="207.5" height="38.8" fill="rgb(233,244,252)" stroke="#fff"/>
<text class="small" text-anchor="middle" x="561.2" y="594.2">1.01×</text>
<rect x="665.0" y="570.2" width="207.5" height="38.8" fill="rgb(128,208,103)" stroke="#fff"/>
<text class="small" text-anchor="middle" x="768.8" y="594.2">1.60×</text>
<rect x="872.5" y="570.2" width="207.5" height="38.8" fill="rgb(254,243,233)" stroke="#fff"/>
<text class="small" text-anchor="middle" x="976.2" y="594.2">0.99×</text>
<text class="axis" text-anchor="end" x="240" y="633.4">Rotate_CCW</text>
<rect x="250.0" y="608.9" width="207.5" height="38.8" fill="rgb(245,198,178)" stroke="#fff"/>
<text class="small" text-anchor="middle" x="353.8" y="633.0">0.72×</text>
<rect x="457.5" y="608.9" width="207.5" height="38.8" fill="rgb(240,175,151)" stroke="#fff"/>
<text class="small" text-anchor="middle" x="561.2" y="633.0">0.57×</text>
<rect x="665.0" y="608.9" width="207.5" height="38.8" fill="rgb(199,232,204)" stroke="#fff"/>
<text class="small" text-anchor="middle" x="768.8" y="633.0">1.20×</text>
<rect x="872.5" y="608.9" width="207.5" height="38.8" fill="rgb(253,236,224)" stroke="#fff"/>
<text class="small" text-anchor="middle" x="976.2" y="633.0">0.95×</text>
<text class="axis" text-anchor="end" x="240" y="672.1">Rotate_CW</text>
<rect x="250.0" y="647.7" width="207.5" height="38.8" fill="rgb(245,201,181)" stroke="#fff"/>
<text class="small" text-anchor="middle" x="353.8" y="671.7">0.73×</text>
<rect x="457.5" y="647.7" width="207.5" height="38.8" fill="rgb(240,176,151)" stroke="#fff"/>
<text class="small" text-anchor="middle" x="561.2" y="671.7">0.58×</text>
<rect x="665.0" y="647.7" width="207.5" height="38.8" fill="rgb(201,233,207)" stroke="#fff"/>
<text class="small" text-anchor="middle" x="768.8" y="671.7">1.19×</text>
<rect x="872.5" y="647.7" width="207.5" height="38.8" fill="rgb(253,236,224)" stroke="#fff"/>
<text class="small" text-anchor="middle" x="976.2" y="671.7">0.95×</text>
<text class="axis" text-anchor="end" x="240" y="710.9">Zoom_In</text>
<rect x="250.0" y="686.5" width="207.5" height="38.8" fill="rgb(237,159,131)" stroke="#fff"/>
<text class="small" text-anchor="middle" x="353.8" y="710.5">0.48×</text>
<rect x="457.5" y="686.5" width="207.5" height="38.8" fill="rgb(232,136,103)" stroke="#fff"/>
<text class="small" text-anchor="middle" x="561.2" y="710.5">0.33×</text>
<rect x="665.0" y="686.5" width="207.5" height="38.8" fill="rgb(216,238,227)" stroke="#fff"/>
<text class="small" text-anchor="middle" x="768.8" y="710.5">1.11×</text>
<rect x="872.5" y="686.5" width="207.5" height="38.8" fill="rgb(251,228,215)" stroke="#fff"/>
<text class="small" text-anchor="middle" x="976.2" y="710.5">0.90×</text>
<text class="axis" text-anchor="end" x="240" y="749.7">Zoom_Out</text>
<rect x="250.0" y="725.2" width="207.5" height="38.8" fill="rgb(250,223,209)" stroke="#fff"/>
<text class="small" text-anchor="middle" x="353.8" y="749.3">0.87×</text>
<rect x="457.5" y="725.2" width="207.5" height="38.8" fill="rgb(248,213,197)" stroke="#fff"/>
<text class="small" text-anchor="middle" x="561.2" y="749.3">0.81×</text>
<rect x="665.0" y="725.2" width="207.5" height="38.8" fill="rgb(252,231,219)" stroke="#fff"/>
<text class="small" text-anchor="middle" x="768.8" y="749.3">0.92×</text>
<rect x="872.5" y="725.2" width="207.5" height="38.8" fill="rgb(250,224,209)" stroke="#fff"/>
<text class="small" text-anchor="middle" x="976.2" y="749.3">0.87×</text>
<text class="axis" text-anchor="middle" x="353.8" y="93">d1 · 4000x3000</text>
<text class="axis" text-anchor="middle" x="561.2" y="93">d1 · 6000x6000</text>
<text class="axis" text-anchor="middle" x="768.8" y="93">d16 · 4000x3000</text>
<text class="axis" text-anchor="middle" x="976.2" y="93">d16 · 6000x6000</text>
<rect class="frame" x="250" y="105" width="830" height="659"/>
</svg>