<svg xmlns="http://www.w3.org/2000/svg" width="1200" height="700" viewBox="0 0 1200 700" role="img" aria-label="Filtro adaptativo: efeito do chunk — SIMD omp, 20 threads">
<title>Filtro adaptativo: efeito do chunk — SIMD omp, 20 threads</title>
<style>text{font-family:Arial,sans-serif;fill:#202124}.axis{font-size:13px}.small{font-size:12px}.title{font-size:20px;font-weight:700}.legend{font-size:12px}.grid{stroke:#d9d9d9;stroke-width:1}.frame{fill:none;stroke:#555;stroke-width:1}.note{font-size:11px;fill:#555}</style>
<text class="title" x="105" y="34">Filtro adaptativo: efeito do chunk — SIMD omp, 20 threads</text>
<line class="grid" x1="105" x2="930" y1="605.0" y2="605.0"/>
<text class="axis" text-anchor="end" x="95" y="610.0">0.57</text>
<line class="grid" x1="105" x2="930" y1="471.8" y2="471.8"/>
<text class="axis" text-anchor="end" x="95" y="476.8">0.79</text>
<line class="grid" x1="105" x2="930" y1="338.5" y2="338.5"/>
<text class="axis" text-anchor="end" x="95" y="343.5">1.00</text>
<line class="grid" x1="105" x2="930" y1="205.2" y2="205.2"/>
<text class="axis" text-anchor="end" x="95" y="210.2">1.21</text>
<line class="grid" x1="105" x2="930" y1="72.0" y2="72.0"/>
<text class="axis" text-anchor="end" x="95" y="77.0">1.42</text>
<rect class="frame" x="105" y="72" width="825" height="533"/>
<line class="frame" x1="105.0" x2="105.0" y1="605" y2="611"/>
<text class="axis" text-anchor="middle" x="105.0" y="632">1</text>
<line class="frame" x1="311.2" x2="311.2" y1="605" y2="611"/>
<text class="axis" text-anchor="middle" x="311.2" y="632">4</text>
<line class="frame" x1="517.5" x2="517.5" y1="605" y2="611"/>
<text class="axis" text-anchor="middle" x="517.5" y="632">16</text>
<line class="frame" x1="723.8" x2="723.8" y1="605" y2="611"/>
<text class="axis" text-anchor="middle" x="723.8" y="632">64</text>
<line class="frame" x1="930.0" x2="930.0" y1="605" y2="611"/>
<text class="axis" text-anchor="middle" x="930.0" y="632">256</text>
<line x1="105" x2="930" y1="336.5" y2="336.5" stroke="#555" stroke-width="2" stroke-dasharray="7,5"/>
<text class="note" x="940" y="340.5">empate</text>
<polyline points="105.0,211.5 311.2,210.1 517.5,214.8 723.8,273.3 930.0,482.5" fill="none" stroke="#1f77b4" stroke-width="2.5"/>
<circle cx="105.0" cy="211.5" r="4" fill="#1f77b4"/>
<circle cx="311.2" cy="210.1" r="4" fill="#1f77b4"/>
<circle cx="517.5" cy="214.8" r="4" fill="#1f77b4"/>
<circle cx="723.8" cy="273.3" r="4" fill="#1f77b4"/>
<circle cx="930.0" cy="482.5" r="4" fill="#1f77b4"/>
<line x1="948" x2="972" y1="72" y2="72" stroke="#1f77b4" stroke-width="3"/>
<text class="legend" x="980" y="76">control_bands_256_6000x6000.png</text>
<polyline points="105.0,128.9 311.2,128.5 517.5,135.6 723.8,164.0 930.0,360.3" fill="none" stroke="#d62728" stroke-width="2.5"/>
<circle cx="105.0" cy="128.9" r="4" fill="#d62728"/>
<circle cx="311.2" cy="128.5" r="4" fill="#d62728"/>
<circle cx="517.5" cy="135.6" r="4" fill="#d62728"/>
<circle cx="723.8" cy="164.0" r="4" fill="#d62728"/>
<circle cx="930.0" cy="360.3" r="4" fill="#d62728"/>
<line x1="948" x2="972" y1="94" y2="94" stroke="#d62728" stroke-width="3"/>
<text class="legend" x="980" y="98">control_half_noise_6000x6000.png</text>
<polyline points="105.0,316.5 311.2,316.0 517.5,324.0 723.8,351.3 930.0,559.7" fill="none" stroke="#2ca02c" stroke-width="2.5"/>
<circle cx="105.0" cy="316.5" r="4" fill="#2ca02c"/>
<circle cx="311.2" cy="316.0" r="4" fill="#2ca02c"/>
<circle cx="517.5" cy="324.0" r="4" fill="#2ca02c"/>
<circle cx="723.8" cy="351.3" r="4" fill="#2ca02c"/>
<circle cx="930.0" cy="559.7" r="4" fill="#2ca02c"/>
<line x1="948" x2="972" y1="116" y2="116" stroke="#2ca02c" stroke-width="3"/>
<text class="legend" x="980" y="120">control_noise_6000x6000.png</text>
<polyline points="105.0,339.5 311.2,338.5 517.5,345.3 723.8,371.7 930.0,564.3" fill="none" stroke="#9467bd" stroke-width="2.5"/>
<circle cx="105.0" cy="339.5" r="4" fill="#9467bd"/>
<circle cx="311.2" cy="338.5" r="4" fill="#9467bd"/>
<circle cx="517.5" cy="345.3" r="4" fill="#9467bd"/>
<circle cx="723.8" cy="371.7" r="4" fill="#9467bd"/>
<circle cx="930.0" cy="564.3" r="4" fill="#9467bd"/>
<line x1="948" x2="972" y1="138" y2="138" stroke="#9467bd" stroke-width="3"/>
<text class="legend" x="980" y="142">control_smooth_6000x6000.png</text>
<polyline points="105.0,152.3 311.2,151.6 517.5,156.3 723.8,172.8 930.0,281.1" fill="none" stroke="#ff7f0e" stroke-width="2.5"/>
<circle cx="105.0" cy="152.3" r="4" fill="#ff7f0e"/>
<circle cx="311.2" cy="151.6" r="4" fill="#ff7f0e"/>
<circle cx="517.5" cy="156.3" r="4" fill="#ff7f0e"/>
<circle cx="723.8" cy="172.8" r="4" fill="#ff7f0e"/>
<circle cx="930.0" cy="281.1" r="4" fill="#ff7f0e"/>
<line x1="948" x2="972" y1="160" y2="160" stroke="#ff7f0e" stroke-width="3"/>
<text class="legend" x="980" y="164">firework.jpg</text>
<polyline points="105.0,114.8 311.2,112.9 517.5,112.7 723.8,123.7 930.0,208.8" fill="none" stroke="#17becf" stroke-width="2.5"/>
<circle cx="105.0" cy="114.8" r="4" fill="#17becf"/>
<circle cx="311.2" cy="112.9" r="4" fill="#17becf"/>
<circle cx="517.5" cy="112.7" r="4" fill="#17becf"/>
<circle cx="723.8" cy="123.7" r="4" fill="#17becf"/>
<circle cx="930.0" cy="208.8" r="4" fill="#17becf"/>
<line x1="948" x2="972" y1="182" y2="182" stroke="#17becf" stroke-width="3"/>
<text class="legend" x="980" y="186">rain_paisage.jpg</text>
<polyline points="105.0,299.2 311.2,299.7 517.5,300.1 723.8,350.6 930.0,390.0" fill="none" stroke="#8c564b" stroke-width="2.5"/>
<circle cx="105.0" cy="299.2" r="4" fill="#8c564b"/>
<circle cx="311.2" cy="299.7" r="4" fill="#8c564b"/>
<circle cx="517.5" cy="300.1" r="4" fill="#8c564b"/>
<circle cx="723.8" cy="350.6" r="4" fill="#8c564b"/>
<circle cx="930.0" cy="390.0" r="4" fill="#8c564b"/>
<line x1="948" x2="972" y1="204" y2="204" stroke="#8c564b" stroke-width="3"/>
<text class="legend" x="980" y="208">sky.jpg</text>
<polyline points="105.0,289.9 311.2,291.8 517.5,291.2 723.8,315.6 930.0,411.0" fill="none" stroke="#e377c2" stroke-width="2.5"/>
<circle cx="105.0" cy="289.9" r="4" fill="#e377c2"/>
<circle cx="311.2" cy="291.8" r="4" fill="#e377c2"/>
<circle cx="517.5" cy="291.2" r="4" fill="#e377c2"/>
<circle cx="723.8" cy="315.6" r="4" fill="#e377c2"/>
<circle cx="930.0" cy="411.0" r="4" fill="#e377c2"/>
<line x1="948" x2="972" y1="226" y2="226" stroke="#e377c2" stroke-width="3"/>
<text class="legend" x="980" y="230">stars.jpg</text>
<text class="axis" text-anchor="middle" x="517.5" y="675">Tamanho do chunk (log₂)</text>
<text class="axis" text-anchor="middle" transform="translate(25 338.5) rotate(-90)">Speedup (static / dynamic)</text>
</svg>