<svg xmlns="http://www.w3.org/2000/svg" width="1600" height="818" viewBox="0 0 1600 818" role="img" aria-label="Efeito dos builds SIMD — 36MP, 20 threads">
<rect width="100%" height="100%" fill="#ffffff"/>
<g font-family="Arial,Helvetica,sans-serif">
<text x="32.0" y="42.0" text-anchor="start" font-size="25" fill="#223449" font-weight="700">Efeito dos builds SIMD — 36MP, 20 threads</text>
<text x="32.0" y="70.0" text-anchor="start" font-size="15" fill="#223449" font-weight="400">Razão das medianas de tempo; acima de 1×, o build do denominador é mais rápido.</text>
<text x="32.0" y="94.0" text-anchor="start" font-size="14" fill="#536579" font-weight="400">Mesmo código, GCC 12.2, -march=haswell, static. O gráfico não atribui ganho à reescrita do algoritmo.</text>
<rect x="24" y="180.0" width="1545" height="37" fill="#f6f8fb"/>
<rect x="24" y="254.0" width="1545" height="37" fill="#f6f8fb"/>
<rect x="24" y="328.0" width="1545" height="37" fill="#f6f8fb"/>
<rect x="24" y="402.0" width="1545" height="37" fill="#f6f8fb"/>
<rect x="24" y="476.0" width="1545" height="37" fill="#f6f8fb"/>
<rect x="24" y="550.0" width="1545" height="37" fill="#f6f8fb"/>
<rect x="24" y="624.0" width="1545" height="37" fill="#f6f8fb"/>
<text x="577.5" y="133.0" text-anchor="middle" font-size="17" fill="#223449" font-weight="700">Vetorização automática: off / auto (log)</text>
<line x1="335.0" y1="164" x2="335.0" y2="698" stroke="#e1e7ed" stroke-width="1" />
<text x="335.0" y="156.0" text-anchor="middle" font-size="13" fill="#536579" font-weight="400">0.5×</text>
<line x1="462.4" y1="164" x2="462.4" y2="698" stroke="#54657a" stroke-width="1.8" stroke-dasharray="5 5"/>
<text x="462.4" y="156.0" text-anchor="middle" font-size="13" fill="#536579" font-weight="400">1×</text>
<line x1="589.8" y1="164" x2="589.8" y2="698" stroke="#e1e7ed" stroke-width="1" />
<text x="589.8" y="156.0" text-anchor="middle" font-size="13" fill="#536579" font-weight="400">2×</text>
<line x1="717.2" y1="164" x2="717.2" y2="698" stroke="#e1e7ed" stroke-width="1" />
<text x="717.2" y="156.0" text-anchor="middle" font-size="13" fill="#536579" font-weight="400">4×</text>
<line x1="820.0" y1="164" x2="820.0" y2="698" stroke="#e1e7ed" stroke-width="1" />
<text x="820.0" y="156.0" text-anchor="middle" font-size="13" fill="#536579" font-weight="400">7×</text>
<text x="1272.5" y="133.0" text-anchor="middle" font-size="17" fill="#223449" font-weight="700">Pragma explícito: auto / omp</text>
<line x1="1035.0" y1="164" x2="1035.0" y2="698" stroke="#e1e7ed" stroke-width="1" />
<text x="1035.0" y="156.0" text-anchor="middle" font-size="13" fill="#536579" font-weight="400">0.7×</text>
<line x1="1272.5" y1="164" x2="1272.5" y2="698" stroke="#54657a" stroke-width="1.8" stroke-dasharray="5 5"/>
<text x="1272.5" y="156.0" text-anchor="middle" font-size="13" fill="#536579" font-weight="400">1×</text>
<line x1="1510.0" y1="164" x2="1510.0" y2="698" stroke="#e1e7ed" stroke-width="1" />
<text x="1510.0" y="156.0" text-anchor="middle" font-size="13" fill="#536579" font-weight="400">1.3×</text>
<text x="305.0" y="203.5" text-anchor="end" font-size="14" fill="#223449" font-weight="400">Negative · linear</text>
<line x1="462.4" y1="198.5" x2="484.6" y2="198.5" stroke="#087d85" stroke-width="4"/>
<circle cx="484.6" cy="198.5" r="5.5" fill="#087d85"/>
<text x="493.6" y="203.5" text-anchor="start" font-size="13" fill="#087d85" font-weight="700">1.13×</text>
<line x1="1272.5" y1="198.5" x2="1271.4" y2="198.5" stroke="#b34b50" stroke-width="4"/>
<circle cx="1271.4" cy="198.5" r="5.5" fill="#b34b50"/>
<text x="1280.4" y="203.5" text-anchor="start" font-size="13" fill="#b34b50" font-weight="700">1.00×</text>
<text x="305.0" y="240.5" text-anchor="end" font-size="14" fill="#223449" font-weight="400">Brightness · linear</text>
<line x1="462.4" y1="235.5" x2="537.2" y2="235.5" stroke="#087d85" stroke-width="4"/>
<circle cx="537.2" cy="235.5" r="5.5" fill="#087d85"/>
<text x="546.2" y="240.5" text-anchor="start" font-size="13" fill="#087d85" font-weight="700">1.50×</text>
<line x1="1272.5" y1="235.5" x2="1268.7" y2="235.5" stroke="#b34b50" stroke-width="4"/>
<circle cx="1268.7" cy="235.5" r="5.5" fill="#b34b50"/>
<text x="1277.7" y="240.5" text-anchor="start" font-size="13" fill="#b34b50" font-weight="700">1.00×</text>
<text x="305.0" y="277.5" text-anchor="end" font-size="14" fill="#223449" font-weight="400">Contrast · linear</text>
<line x1="462.4" y1="272.5" x2="645.7" y2="272.5" stroke="#087d85" stroke-width="4"/>
<circle cx="645.7" cy="272.5" r="5.5" fill="#087d85"/>
<text x="654.7" y="277.5" text-anchor="start" font-size="13" fill="#087d85" font-weight="700">2.71×</text>
<line x1="1272.5" y1="272.5" x2="1275.9" y2="272.5" stroke="#c56a14" stroke-width="4"/>
<circle cx="1275.9" cy="272.5" r="5.5" fill="#c56a14"/>
<text x="1284.9" y="277.5" text-anchor="start" font-size="13" fill="#c56a14" font-weight="700">1.00×</text>
<text x="305.0" y="314.5" text-anchor="end" font-size="14" fill="#223449" font-weight="400">Quantize · tabela</text>
<line x1="462.4" y1="309.5" x2="481.6" y2="309.5" stroke="#087d85" stroke-width="4"/>
<circle cx="481.6" cy="309.5" r="5.5" fill="#087d85"/>
<text x="490.6" y="314.5" text-anchor="start" font-size="13" fill="#087d85" font-weight="700">1.11×</text>
<line x1="1272.5" y1="309.5" x2="1224.1" y2="309.5" stroke="#b34b50" stroke-width="4"/>
<circle cx="1224.1" cy="309.5" r="5.5" fill="#b34b50"/>
<text x="1233.1" y="314.5" text-anchor="start" font-size="13" fill="#b34b50" font-weight="700">0.94×</text>
<text x="305.0" y="351.5" text-anchor="end" font-size="14" fill="#223449" font-weight="400">Histograma · privado</text>
<line x1="462.4" y1="346.5" x2="461.9" y2="346.5" stroke="#b34b50" stroke-width="4"/>
<circle cx="461.9" cy="346.5" r="5.5" fill="#b34b50"/>
<text x="470.9" y="351.5" text-anchor="start" font-size="13" fill="#b34b50" font-weight="700">1.00×</text>
<line x1="1272.5" y1="346.5" x2="1290.5" y2="346.5" stroke="#c56a14" stroke-width="4"/>
<circle cx="1290.5" cy="346.5" r="5.5" fill="#c56a14"/>
<text x="1299.5" y="351.5" text-anchor="start" font-size="13" fill="#c56a14" font-weight="700">1.02×</text>
<text x="305.0" y="388.5" text-anchor="end" font-size="14" fill="#223449" font-weight="400">Flip horizontal · saída nova</text>
<line x1="462.4" y1="383.5" x2="464.2" y2="383.5" stroke="#087d85" stroke-width="4"/>
<circle cx="464.2" cy="383.5" r="5.5" fill="#087d85"/>
<text x="473.2" y="388.5" text-anchor="start" font-size="13" fill="#087d85" font-weight="700">1.01×</text>
<line x1="1272.5" y1="383.5" x2="1275.1" y2="383.5" stroke="#c56a14" stroke-width="4"/>
<circle cx="1275.1" cy="383.5" r="5.5" fill="#c56a14"/>
<text x="1284.1" y="388.5" text-anchor="start" font-size="13" fill="#c56a14" font-weight="700">1.00×</text>
<text x="305.0" y="425.5" text-anchor="end" font-size="14" fill="#223449" font-weight="400">Rotação horária · blocos</text>
<line x1="462.4" y1="420.5" x2="461.1" y2="420.5" stroke="#b34b50" stroke-width="4"/>
<circle cx="461.1" cy="420.5" r="5.5" fill="#b34b50"/>
<text x="470.1" y="425.5" text-anchor="start" font-size="13" fill="#b34b50" font-weight="700">0.99×</text>
<line x1="1272.5" y1="420.5" x2="1285.7" y2="420.5" stroke="#c56a14" stroke-width="4"/>
<circle cx="1285.7" cy="420.5" r="5.5" fill="#c56a14"/>
<text x="1294.7" y="425.5" text-anchor="start" font-size="13" fill="#c56a14" font-weight="700">1.02×</text>
<text x="305.0" y="462.5" text-anchor="end" font-size="14" fill="#223449" font-weight="400">Rotação anti-horária · blocos</text>
<line x1="462.4" y1="457.5" x2="463.4" y2="457.5" stroke="#087d85" stroke-width="4"/>
<circle cx="463.4" cy="457.5" r="5.5" fill="#087d85"/>
<text x="472.4" y="462.5" text-anchor="start" font-size="13" fill="#087d85" font-weight="700">1.01×</text>
<line x1="1272.5" y1="457.5" x2="1308.5" y2="457.5" stroke="#c56a14" stroke-width="4"/>
<circle cx="1308.5" cy="457.5" r="5.5" fill="#c56a14"/>
<text x="1317.5" y="462.5" text-anchor="start" font-size="13" fill="#c56a14" font-weight="700">1.05×</text>
<text x="305.0" y="499.5" text-anchor="end" font-size="14" fill="#223449" font-weight="400">Grayscale · original</text>
<line x1="462.4" y1="494.5" x2="489.9" y2="494.5" stroke="#087d85" stroke-width="4"/>
<circle cx="489.9" cy="494.5" r="5.5" fill="#087d85"/>
<text x="498.9" y="499.5" text-anchor="start" font-size="13" fill="#087d85" font-weight="700">1.16×</text>
<line x1="1272.5" y1="494.5" x2="1279.0" y2="494.5" stroke="#c56a14" stroke-width="4"/>
<circle cx="1279.0" cy="494.5" r="5.5" fill="#c56a14"/>
<text x="1288.0" y="499.5" text-anchor="start" font-size="13" fill="#c56a14" font-weight="700">1.01×</text>
<text x="305.0" y="536.5" text-anchor="end" font-size="14" fill="#223449" font-weight="400">Gauss 3×3 · AoS separável</text>
<line x1="462.4" y1="531.5" x2="489.3" y2="531.5" stroke="#087d85" stroke-width="4"/>
<circle cx="489.3" cy="531.5" r="5.5" fill="#087d85"/>
<text x="498.3" y="536.5" text-anchor="start" font-size="13" fill="#087d85" font-weight="700">1.16×</text>
<line x1="1272.5" y1="531.5" x2="1269.9" y2="531.5" stroke="#b34b50" stroke-width="4"/>
<circle cx="1269.9" cy="531.5" r="5.5" fill="#b34b50"/>
<text x="1278.9" y="536.5" text-anchor="start" font-size="13" fill="#b34b50" font-weight="700">1.00×</text>
<text x="305.0" y="573.5" text-anchor="end" font-size="14" fill="#223449" font-weight="400">Gauss 5×5 · AoS separável</text>
<line x1="462.4" y1="568.5" x2="504.8" y2="568.5" stroke="#087d85" stroke-width="4"/>
<circle cx="504.8" cy="568.5" r="5.5" fill="#087d85"/>
<text x="513.8" y="573.5" text-anchor="start" font-size="13" fill="#087d85" font-weight="700">1.26×</text>
<line x1="1272.5" y1="568.5" x2="1274.4" y2="568.5" stroke="#c56a14" stroke-width="4"/>
<circle cx="1274.4" cy="568.5" r="5.5" fill="#c56a14"/>
<text x="1283.4" y="573.5" text-anchor="start" font-size="13" fill="#c56a14" font-weight="700">1.00×</text>
<text x="305.0" y="610.5" text-anchor="end" font-size="14" fill="#223449" font-weight="400">Gauss 7×7 · AoS separável</text>
<line x1="462.4" y1="605.5" x2="521.4" y2="605.5" stroke="#087d85" stroke-width="4"/>
<circle cx="521.4" cy="605.5" r="5.5" fill="#087d85"/>
<text x="530.4" y="610.5" text-anchor="start" font-size="13" fill="#087d85" font-weight="700">1.38×</text>
<line x1="1272.5" y1="605.5" x2="1274.1" y2="605.5" stroke="#c56a14" stroke-width="4"/>
<circle cx="1274.1" cy="605.5" r="5.5" fill="#c56a14"/>
<text x="1283.1" y="610.5" text-anchor="start" font-size="13" fill="#c56a14" font-weight="700">1.00×</text>
<text x="305.0" y="647.5" text-anchor="end" font-size="14" fill="#223449" font-weight="400">Gauss 9×9 · AoS separável</text>
<line x1="462.4" y1="642.5" x2="532.2" y2="642.5" stroke="#087d85" stroke-width="4"/>
<circle cx="532.2" cy="642.5" r="5.5" fill="#087d85"/>
<text x="541.2" y="647.5" text-anchor="start" font-size="13" fill="#087d85" font-weight="700">1.46×</text>
<line x1="1272.5" y1="642.5" x2="1261.3" y2="642.5" stroke="#b34b50" stroke-width="4"/>
<circle cx="1261.3" cy="642.5" r="5.5" fill="#b34b50"/>
<text x="1270.3" y="647.5" text-anchor="start" font-size="13" fill="#b34b50" font-weight="700">0.99×</text>
<text x="305.0" y="684.5" text-anchor="end" font-size="14" fill="#223449" font-weight="400">Gauss 11×11 · AoS separável</text>
<line x1="462.4" y1="679.5" x2="543.2" y2="679.5" stroke="#087d85" stroke-width="4"/>
<circle cx="543.2" cy="679.5" r="5.5" fill="#087d85"/>
<text x="552.2" y="684.5" text-anchor="start" font-size="13" fill="#087d85" font-weight="700">1.55×</text>
<line x1="1272.5" y1="679.5" x2="1263.6" y2="679.5" stroke="#b34b50" stroke-width="4"/>
<circle cx="1263.6" cy="679.5" r="5.5" fill="#b34b50"/>
<text x="1272.6" y="684.5" text-anchor="start" font-size="13" fill="#b34b50" font-weight="700">0.99×</text>
<text x="32.0" y="743.0" text-anchor="start" font-size="14" fill="#536579" font-weight="400">n=5 para Gaussianas de 36 MP; n=10 para as demais operações.</text>
<text x="32.0" y="766.0" text-anchor="start" font-size="14" fill="#536579" font-weight="400">Grayscale e Zoom são controles do código original; os demais nomes identificam variantes isoladas.</text>
<text x="32.0" y="789.0" text-anchor="start" font-size="14" fill="#536579" font-weight="400">Fonte: vectorization_raw.csv do job 824931; medianas recalculadas pelo gerador.</text>
</g></svg>
